<?xml version="1.0" encoding="utf-8"?>
<!-- Generator: Adobe Illustrator 17.1.0, SVG Export Plug-In . SVG Version: 6.00 Build 0)  -->
<!DOCTYPE svg PUBLIC "-//W3C//DTD SVG 1.1//EN" "http://www.w3.org/Graphics/SVG/1.1/DTD/svg11.dtd">
<svg version="1.1" id="Layer_1" xmlns="http://www.w3.org/2000/svg" xmlns:xlink="http://www.w3.org/1999/xlink" x="0px" y="0px"
	 viewBox="0 0 102 75" enable-background="new 0 0 102 75" xml:space="preserve">
<path fill-rule="evenodd" clip-rule="evenodd" fill="#66B93E" d="M82.7,5H20.3C19.6,5,19,5.5,19,6.2v42.1c0,0.7,0.6,1.2,1.3,1.2h24.5
	V62H34.3c-0.7,0-1.1,0.5-1.1,1.2v6.6c0,0.7,0.5,1.2,1.1,1.2h34.4c0.7,0,1.1-0.5,1.1-1.2v-6.6c0-0.7-0.5-1.2-1.1-1.2H58.2V49.5h24.5
	c0.7,0,1.2-0.5,1.3-1.2V6.2C84,5.5,83.4,5,82.7,5L82.7,5z M42.3,7.4h8.1v8.2h-8.1V7.4z M55.8,49.5V62h-8.6V49.5H55.8z M42.3,18h8.1
	v8.1h-8.1V18z M42.3,28.4h8.1v8.1h-8.1V28.4z M29.4,47.1h-8.1v-8.2h8.1V47.1z M29.4,36.5h-8.1v-8.1h8.1V36.5z M29.4,26.1h-8.1V18
	h8.1V26.1z M29.4,15.6h-8.1V7.4h8.1V15.6z M39.9,47.1h-8.1v-8.2h8.1V47.1z M39.9,36.5h-8.1v-8.1h8.1V36.5z M39.9,26.1h-8.1V18h8.1
	V26.1z M39.9,15.6h-8.1V7.4h8.1V15.6z M42.3,47.1v-8.2h8.1v8.2H42.3z M67.5,64.4v4.2H35.5v-4.2H67.5z M60.7,47.1h-8.1v-8.2h8.1V47.1
	z M60.7,36.5h-8.1v-8.1h8.1V36.5z M60.7,26.1h-8.1V18h8.1V26.1z M60.7,15.6h-8.1V7.4h8.1V15.6z M71.2,47.1h-8.1v-8.2h8.1V47.1z
	 M71.2,36.5h-8.1v-8.1h8.1V36.5z M71.2,26.1h-8.1V18h8.1V26.1z M71.2,15.6h-8.1V7.4h8.1V15.6z M81.6,47.1h-8.1v-8.2h8.1V47.1z
	 M81.6,36.5h-8.1v-8.1h8.1V36.5z M81.6,26.1h-8.1V18h8.1V26.1z M81.6,15.6h-8.1V7.4h8.1V15.6z"/>
</svg>
