<?xml version="1.0" encoding="utf-8"?>
<!-- Generator: Adobe Illustrator 17.1.0, SVG Export Plug-In . SVG Version: 6.00 Build 0)  -->
<!DOCTYPE svg PUBLIC "-//W3C//DTD SVG 1.1//EN" "http://www.w3.org/Graphics/SVG/1.1/DTD/svg11.dtd">
<svg version="1.1" id="Layer_1" xmlns="http://www.w3.org/2000/svg" xmlns:xlink="http://www.w3.org/1999/xlink" x="0px" y="0px"
	 viewBox="0 0 78 89" enable-background="new 0 0 78 89" xml:space="preserve">
<path fill-rule="evenodd" clip-rule="evenodd" fill="#69BA42" d="M43.7,88C40,85.2,38,80.9,38,76.4V64.7h-3.7c-0.8,0-1.5-0.7-1.5-1.5
	v-7.1c-7.5-0.1-13.6-6.2-13.6-13.8V24.9h-2.6c-0.8,0-1.5-0.7-1.5-1.5c0-0.8,0.7-1.5,1.5-1.5H25V4.5C25,3.7,25.7,3,26.5,3
	C27.3,3,28,3.7,28,4.5v17.3h23V4.5C51,3.7,51.7,3,52.5,3C53.3,3,54,3.7,54,4.5v17.3h8.4c0.8,0,1.5,0.7,1.5,1.5
	c0,0.8-0.7,1.5-1.5,1.5h-2.6v17.4c0,7.5-6.1,13.7-13.6,13.8v7.1c0,0.8-0.7,1.5-1.5,1.5H41v11.6c0,3.6,1.6,7,4.5,9.2 M35.8,61.7h7.4
	v-5.6h-7.4V61.7z M44.7,53.1H46c5.9,0,10.8-4.8,10.8-10.7V24.9H22.2v17.4c0,5.9,4.8,10.7,10.8,10.7L44.7,53.1L44.7,53.1z M51.3,46.7
	H27.7c-0.8,0-1.5-0.7-1.5-1.5c0-0.8,0.7-1.5,1.5-1.5h23.6c0.8,0,1.5,0.7,1.5,1.5C52.8,46.1,52.1,46.7,51.3,46.7z M52.5,39.5h-26
	c-0.8,0-1.5-0.7-1.5-1.5c0-0.8,0.7-1.5,1.5-1.5h26c0.8,0,1.5,0.7,1.5,1.5C54,38.8,53.3,39.5,52.5,39.5z M52.5,32.3h-26
	c-0.8,0-1.5-0.7-1.5-1.5c0-0.8,0.7-1.5,1.5-1.5h26c0.8,0,1.5,0.7,1.5,1.5C54,31.6,53.3,32.3,52.5,32.3z"/>
</svg>
