<?xml version="1.0" encoding="utf-8"?>
<!-- Generator: Adobe Illustrator 17.1.0, SVG Export Plug-In . SVG Version: 6.00 Build 0)  -->
<!DOCTYPE svg PUBLIC "-//W3C//DTD SVG 1.1//EN" "http://www.w3.org/Graphics/SVG/1.1/DTD/svg11.dtd">
<svg version="1.1" id="Layer_1" xmlns="http://www.w3.org/2000/svg" xmlns:xlink="http://www.w3.org/1999/xlink" x="0px" y="0px"
	 viewBox="0 0 17 20" enable-background="new 0 0 17 20" xml:space="preserve">
<path fill-rule="evenodd" clip-rule="evenodd" fill="white" d="M17,17.3c0,0-0.1,0.7-0.9,1.4c-0.8,0.7-1.7,1.3-3.2,1.3
	c-1.5-0.1-5.3-3.6-7.4-6c-2-2.4-4.6-7.6-4.5-9.2C1.1,3.2,3.1,1.1,4.5,1c0.9,0.3,2.3,4.4,2.4,5.5C6.8,6.9,6.1,6.8,5.5,7.2
	C5.3,7.4,4.7,8,4.7,8.7c0,0.7,1.7,2.9,2.3,3.7c0.6,0.8,2.5,3.2,3.4,3c0.9-0.1,1-0.9,1.5-1.4C12.6,13.4,16.2,16.3,17,17.3z"/>
</svg>
