<?xml version="1.0" encoding="utf-8"?>
<!-- Generator: Adobe Illustrator 17.1.0, SVG Export Plug-In . SVG Version: 6.00 Build 0)  -->
<!DOCTYPE svg PUBLIC "-//W3C//DTD SVG 1.1//EN" "http://www.w3.org/Graphics/SVG/1.1/DTD/svg11.dtd">
<svg version="1.1" id="Layer_1" xmlns="http://www.w3.org/2000/svg" xmlns:xlink="http://www.w3.org/1999/xlink" x="0px" y="0px"
	 viewBox="0 0 78 89" enable-background="new 0 0 78 89" xml:space="preserve">
<path fill-rule="evenodd" clip-rule="evenodd" fill="#69BA42" d="M63.8,82c-6.8,0-14.2-1.6-14.2-5.1V46.2c0-3.5,7.3-5.1,14.2-5.1
	c6.8,0,14.2,1.6,14.2,5.1v30.7C78,80.4,70.7,82,63.8,82z M63.8,43.6c-7.5,0-11.4,1.9-11.6,2.6v0c0.2,0.7,4.1,2.5,11.6,2.5
	c7.5,0,11.3-1.8,11.6-2.6C75.2,45.5,71.3,43.6,63.8,43.6z M75.4,49.3c-2.7,1.4-7.3,2-11.6,2s-8.8-0.6-11.6-2v2
	c0.2,0.7,4.1,2.6,11.6,2.6c7.5,0,11.4-1.9,11.6-2.6V49.3z M75.4,54.4c-2.7,1.4-7.3,2-11.6,2s-8.8-0.6-11.6-2v2
	c0.2,0.7,4.1,2.6,11.6,2.6c7.5,0,11.4-1.9,11.6-2.6V54.4z M75.4,59.5c-2.7,1.4-7.3,2-11.6,2s-8.8-0.6-11.6-2v2
	c0.2,0.7,4.1,2.6,11.6,2.6c7.5,0,11.4-1.9,11.6-2.6V59.5z M75.4,64.6c-2.7,1.4-7.3,2-11.6,2s-8.8-0.6-11.6-2v2
	c0.2,0.7,4.1,2.6,11.6,2.6c7.5,0,11.4-1.9,11.6-2.6V64.6z M75.4,69.8c-2.7,1.4-7.3,2-11.6,2s-8.8-0.6-11.6-2v2
	c0.2,0.7,4.1,2.6,11.6,2.6c7.5,0,11.4-1.9,11.6-2.6V69.8z M75.4,74.9c-2.7,1.4-7.3,2-11.6,2s-8.8-0.6-11.6-2v2
	c0.2,0.7,4.1,2.6,11.6,2.6c7.5,0,11.4-1.9,11.6-2.6V74.9z M43.3,37.4h10.2c0.6,0,1.1,0.5,1.1,1.1c0,0.6-0.5,1.1-1.1,1.1H43.3
	c-0.6,0-1.1-0.5-1.1-1.1C42.2,37.9,42.7,37.4,43.3,37.4z M33,37.5c6.3,0,11.3,5,11.3,11.3C44.3,55,39.2,60,33,60
	c-6.2,0-11.3-5-11.3-11.3C21.7,42.5,26.7,37.5,33,37.5z M33,58c5.1,0,9.3-4.1,9.3-9.2c0-5.1-4.1-9.2-9.3-9.2c-5.1,0-9.3,4.1-9.3,9.2
	C23.7,53.8,27.9,58,33,58z M33.6,50h-1.3c-1.7,0.1-3.1-1.2-3.2-2.9c0.1-1.4,1.1-2.6,2.6-2.8v-0.1c0-0.7,0.6-1.3,1.3-1.3
	c0.7,0,1.3,0.6,1.3,1.3h1.3c0.7,0,1.3,0.6,1.3,1.3c0,0.7-0.6,1.3-1.3,1.3h-3.2c-0.4,0-0.6,0.2-0.6,0.3c0,0.1,0.2,0.3,0.6,0.3h1.3
	c1.7-0.1,3.1,1.2,3.2,2.9c-0.1,1.4-1.1,2.6-2.6,2.8v0.1c0,0.7-0.6,1.3-1.3,1.3c-0.7,0-1.3-0.6-1.3-1.3h-1.3c-0.7,0-1.3-0.6-1.3-1.3
	c0-0.7,0.6-1.3,1.3-1.3h3.2c0.4,0,0.6-0.2,0.6-0.3C34.3,50.2,34,50,33.6,50z M13,57.9h9.7c0.6,0,1.1,0.5,1.1,1.1
	c0,0.6-0.5,1.1-1.1,1.1H12.5c-0.3,0-0.6-0.1-0.8-0.4L6.4,54c-0.2-0.2-0.3-0.5-0.3-0.7v-9.1c0-0.3,0.1-0.6,0.3-0.9l5.7-5.6
	c0.2-0.2,0.5-0.3,0.8-0.3h9.7c0.6,0,1.1,0.5,1.1,1.1c0,0.6-0.5,1.1-1.1,1.1h-9.2l-5.1,4.9v8.3L13,57.9z M66.4,38.3
	C66.4,38.3,66.4,38.3,66.4,38.3c-0.6,0-1.1-0.5-1.1-1.1v-2.7H3.2V63h42.6c0.6,0,1.1,0.5,1.1,1.1c0,0.6-0.5,1.1-1.1,1.1H2.1
	c0,0,0,0,0,0c-0.6,0-1.1-0.5-1.1-1.1V33.4c0,0,0,0,0,0c0-0.6,0.5-1.1,1.1-1.1h64.3c0,0,0,0,0,0c0.6,0,1.1,0.5,1.1,1.1v3.8
	c0,0,0,0,0,0C67.5,37.8,67,38.3,66.4,38.3z M58.7,29.4c-0.1,0-0.2,0-0.2,0L8.1,18.1L5.8,28.5c-0.1,0.6-0.7,1-1.3,0.8
	c-0.6-0.1-1-0.7-0.8-1.3l2.6-11.5c0.1-0.3,0.2-0.5,0.5-0.7c0.2-0.2,0.5-0.2,0.8-0.1l51.5,11.5c0.5,0.1,0.9,0.6,0.9,1.1
	C59.8,28.9,59.3,29.4,58.7,29.4z M51.8,22.9L21.9,10.5l-2.1,4.2v0c0,0,0,0,0,0.1c-0.3,0.5-1,0.7-1.5,0.4c-0.5-0.3-0.7-1-0.4-1.5
	l2.6-5.1c0.3-0.5,0.9-0.7,1.4-0.5l30.9,12.8c0.6,0.2,0.8,0.9,0.6,1.4C53.1,22.9,52.4,23.1,51.8,22.9z"/>
</svg>
