<?xml version="1.0" encoding="utf-8"?>
<!-- Generator: Adobe Illustrator 17.1.0, SVG Export Plug-In . SVG Version: 6.00 Build 0)  -->
<!DOCTYPE svg PUBLIC "-//W3C//DTD SVG 1.1//EN" "http://www.w3.org/Graphics/SVG/1.1/DTD/svg11.dtd">
<svg version="1.1" id="Layer_1" xmlns="http://www.w3.org/2000/svg" xmlns:xlink="http://www.w3.org/1999/xlink" x="0px" y="0px"
	 viewBox="0 0 102 75" enable-background="new 0 0 102 75" xml:space="preserve">
<path fill-rule="evenodd" clip-rule="evenodd" fill="#66B93E" d="M75.8,75c-6.8,0-14.2-1.6-14.2-5.1V39.2c0-3.5,7.3-5.1,14.2-5.1
	c6.8,0,14.2,1.6,14.2,5.1v30.7C90,73.4,82.7,75,75.8,75z M75.8,36.6c-7.5,0-11.4,1.9-11.6,2.6v0c0.2,0.7,4.1,2.5,11.6,2.5
	c7.5,0,11.3-1.8,11.6-2.6C87.2,38.5,83.3,36.6,75.8,36.6z M87.4,42.3c-2.7,1.4-7.3,2-11.6,2s-8.8-0.6-11.6-2v2
	c0.2,0.7,4.1,2.6,11.6,2.6c7.5,0,11.4-1.9,11.6-2.6V42.3z M87.4,47.4c-2.7,1.4-7.3,2-11.6,2s-8.8-0.6-11.6-2v2
	c0.2,0.7,4.1,2.6,11.6,2.6c7.5,0,11.4-1.9,11.6-2.6V47.4z M87.4,52.5c-2.7,1.4-7.3,2-11.6,2s-8.8-0.6-11.6-2v2
	c0.2,0.7,4.1,2.6,11.6,2.6c7.5,0,11.4-1.9,11.6-2.6V52.5z M87.4,57.6c-2.7,1.4-7.3,2-11.6,2s-8.8-0.6-11.6-2v2
	c0.2,0.7,4.1,2.6,11.6,2.6c7.5,0,11.4-1.9,11.6-2.6V57.6z M87.4,62.8c-2.7,1.4-7.3,2-11.6,2s-8.8-0.6-11.6-2v2
	c0.2,0.7,4.1,2.6,11.6,2.6c7.5,0,11.4-1.9,11.6-2.6V62.8z M87.4,67.9c-2.7,1.4-7.3,2-11.6,2s-8.8-0.6-11.6-2v2
	c0.2,0.7,4.1,2.6,11.6,2.6c7.5,0,11.4-1.9,11.6-2.6V67.9z M55.3,30.4h10.2c0.6,0,1.1,0.5,1.1,1.1c0,0.6-0.5,1.1-1.1,1.1H55.3
	c-0.6,0-1.1-0.5-1.1-1.1C54.2,30.9,54.7,30.4,55.3,30.4z M45,30.5c6.3,0,11.3,5,11.3,11.3C56.3,48,51.2,53,45,53
	c-6.2,0-11.3-5-11.3-11.3C33.7,35.5,38.7,30.5,45,30.5z M45,51c5.1,0,9.3-4.1,9.3-9.2c0-5.1-4.1-9.2-9.3-9.2c-5.1,0-9.3,4.1-9.3,9.2
	C35.7,46.8,39.9,51,45,51z M45.6,43h-1.3c-1.7,0.1-3.1-1.2-3.2-2.9c0.1-1.4,1.1-2.6,2.6-2.8v-0.1c0-0.7,0.6-1.3,1.3-1.3
	c0.7,0,1.3,0.6,1.3,1.3h1.3c0.7,0,1.3,0.6,1.3,1.3s-0.6,1.3-1.3,1.3h-3.2c-0.4,0-0.6,0.2-0.6,0.3c0,0.1,0.2,0.3,0.6,0.3h1.3
	c1.7-0.1,3.1,1.2,3.2,2.9c-0.1,1.4-1.1,2.6-2.6,2.8v0.1c0,0.7-0.6,1.3-1.3,1.3c-0.7,0-1.3-0.6-1.3-1.3h-1.3c-0.7,0-1.3-0.6-1.3-1.3
	c0-0.7,0.6-1.3,1.3-1.3h3.2c0.4,0,0.6-0.2,0.6-0.3C46.3,43.2,46,43,45.6,43z M25,50.9h9.7c0.6,0,1.1,0.5,1.1,1.1s-0.5,1.1-1.1,1.1
	H24.5c-0.3,0-0.6-0.1-0.8-0.4L18.4,47c-0.2-0.2-0.3-0.5-0.3-0.7v-9.1c0-0.3,0.1-0.6,0.3-0.9l5.7-5.6c0.2-0.2,0.5-0.3,0.8-0.3h9.7
	c0.6,0,1.1,0.5,1.1,1.1c0,0.6-0.5,1.1-1.1,1.1h-9.2l-5.1,4.9v8.3L25,50.9z M78.4,31.3C78.4,31.3,78.4,31.3,78.4,31.3
	c-0.6,0-1.1-0.5-1.1-1.1v-2.7H15.2V56h42.6c0.6,0,1.1,0.5,1.1,1.1c0,0.6-0.5,1.1-1.1,1.1H14.1c0,0,0,0,0,0c-0.6,0-1.1-0.5-1.1-1.1
	V26.4c0,0,0,0,0,0c0-0.6,0.5-1.1,1.1-1.1h64.3c0,0,0,0,0,0c0.6,0,1.1,0.5,1.1,1.1v3.8c0,0,0,0,0,0C79.5,30.8,79,31.3,78.4,31.3z
	 M70.7,22.4c-0.1,0-0.2,0-0.2,0L20.1,11.1l-2.3,10.4c-0.1,0.6-0.7,1-1.3,0.8c-0.6-0.1-1-0.7-0.8-1.3l2.6-11.5
	c0.1-0.3,0.2-0.5,0.5-0.7c0.2-0.2,0.5-0.2,0.8-0.1l51.5,11.5c0.5,0.1,0.9,0.6,0.9,1.1C71.8,21.9,71.3,22.4,70.7,22.4z M63.8,15.9
	L33.9,3.5l-2.1,4.2v0c0,0,0,0,0,0.1c-0.3,0.5-1,0.7-1.5,0.4c-0.5-0.3-0.7-1-0.4-1.5l2.6-5.1c0.3-0.5,0.9-0.7,1.4-0.5l30.9,12.8
	c0.6,0.2,0.8,0.9,0.6,1.4C65.1,15.9,64.4,16.1,63.8,15.9z"/>
</svg>
