<?xml version="1.0" encoding="utf-8"?>
<!-- Generator: Adobe Illustrator 17.0.0, SVG Export Plug-In . SVG Version: 6.00 Build 0)  -->
<!DOCTYPE svg PUBLIC "-//W3C//DTD SVG 1.1//EN" "http://www.w3.org/Graphics/SVG/1.1/DTD/svg11.dtd">
<svg version="1.1" id="Слой_1" xmlns="http://www.w3.org/2000/svg" xmlns:xlink="http://www.w3.org/1999/xlink" x="0px" y="0px"
	 width="91px" height="114px" viewBox="0 0 91 114" enable-background="new 0 0 91 114" xml:space="preserve">
<path fill-rule="evenodd" clip-rule="evenodd" fill="white" d="M79.299,10.401c-0.87,0-1.682-0.24-2.38-0.65l-26.28,26.312
	c0.403,0.694,0.637,1.498,0.637,2.36c0,2.601-2.099,4.701-4.701,4.701s-4.701-2.1-4.701-4.701c0-0.868,0.238-1.677,0.646-2.374
	l-3.482-3.469c-0.695,0.405-1.502,0.641-2.366,0.641c-0.861,0-1.664-0.234-2.357-0.636l-17.55,17.55
	c0.402,0.693,0.636,1.496,0.636,2.357c0,2.601-2.099,4.701-4.701,4.701c-2.601,0-4.701-2.1-4.701-4.701
	c0-2.601,2.099-4.701,4.701-4.701c0.861,0,1.664,0.234,2.357,0.636l17.55-17.55c-0.402-0.693-0.636-1.496-0.636-2.357
	c0-2.601,2.1-4.701,4.701-4.701c2.601,0,4.701,2.1,4.701,4.701c0,0.857-0.232,1.657-0.63,2.349l3.492,3.479
	c0.689-0.396,1.487-0.626,2.34-0.626c0.86,0,1.662,0.233,2.354,0.634L75.22,8.035c-0.394-0.688-0.622-1.483-0.622-2.334
	c0-2.601,2.1-4.701,4.701-4.701C81.901,1,84,3.099,84,5.701C84,8.302,81.901,10.401,79.299,10.401z M12.701,50.208
	c-1.263,0-2.285,1.022-2.285,2.285c0,1.263,1.022,2.285,2.285,2.285s2.285-1.022,2.285-2.285
	C14.986,51.229,13.964,50.208,12.701,50.208z M36.673,26.235c-1.263,0-2.285,1.022-2.285,2.285c0,1.264,1.022,2.286,2.285,2.286
	c1.264,0,2.285-1.022,2.285-2.286C38.958,27.257,37.936,26.235,36.673,26.235z M46.576,36.139c-1.263,0-2.285,1.022-2.285,2.285
	c0,1.263,1.022,2.285,2.285,2.285c1.264,0,2.285-1.022,2.285-2.285C48.861,37.16,47.839,36.139,46.576,36.139z M79.299,3.415
	c-1.263,0-2.285,1.022-2.285,2.285s1.022,2.285,2.285,2.285s2.285-1.022,2.285-2.285S80.563,3.415,79.299,3.415z"/>
<path fill-rule="evenodd" clip-rule="evenodd" fill="white" d="M79.782,75.871c-0.21,0.283-0.544,0.45-0.898,0.45h-1.106v36.572
	c0,0.611-0.499,1.107-1.116,1.107H17.337c-0.616,0-1.115-0.496-1.115-1.107V76.321h-1.106c-0.354,0-0.688-0.167-0.898-0.45
	c-0.21-0.283-0.272-0.649-0.167-0.984l4.408-14.108C18.603,60.316,19.035,60,19.524,60h54.952c0.489,0,0.921,0.316,1.066,0.779
	l4.408,14.108C80.055,75.223,79.993,75.588,79.782,75.871z M41.839,101.371h0.829c0.616,0,1.116,0.495,1.116,1.107
	c0,0.611-0.5,1.107-1.116,1.107h-0.829v8.202l0,0h10.322V88.224H41.839V101.371z M20.346,62.214l-3.717,11.894v0H37.33v-2.861
	c0-0.262,0.094-0.515,0.264-0.715l7.095-8.318H20.346z M39.561,71.652v3.562c0,0.611-0.499,1.107-1.115,1.107H18.453v35.465h21.155
	V87.118c0-0.611,0.499-1.107,1.116-1.107h12.553c0.616,0,1.116,0.495,1.116,1.107v24.669h21.155V76.321H59.494h-3.94
	c-0.616,0-1.116-0.495-1.116-1.107v-3.562L47,62.931L39.561,71.652z M73.654,62.213H49.311l7.095,8.318
	c0.17,0.2,0.264,0.453,0.264,0.715v2.861h20.701L73.654,62.213z M46.889,77.313c-2.33,0-4.226-1.881-4.226-4.193
	c0-2.312,1.896-4.193,4.226-4.193c2.33,0,4.226,1.881,4.226,4.193C51.115,75.432,49.219,77.313,46.889,77.313z M46.889,71.141
	c-1.1,0-1.995,0.888-1.995,1.979s0.895,1.979,1.995,1.979c1.1,0,1.995-0.888,1.995-1.979S47.989,71.141,46.889,71.141z
	 M36.191,104.572c0,0.611-0.499,1.107-1.115,1.107H22.892c-0.616,0-1.116-0.496-1.116-1.107V88.44c0-0.611,0.5-1.107,1.116-1.107
	h12.184c0.616,0,1.115,0.496,1.115,1.107V104.572z M33.96,89.547h-9.953v13.918h9.953V89.547z M58.924,87.333h12.184
	c0.616,0,1.115,0.496,1.115,1.107v16.132c0,0.611-0.499,1.107-1.115,1.107H58.924c-0.616,0-1.116-0.496-1.116-1.107V88.44
	C57.809,87.829,58.308,87.333,58.924,87.333z M60.04,103.465h9.952V89.547H60.04V103.465z"/>
</svg>
