<?xml version="1.0" encoding="utf-8"?>
<!-- Generator: Adobe Illustrator 17.1.0, SVG Export Plug-In . SVG Version: 6.00 Build 0)  -->
<!DOCTYPE svg PUBLIC "-//W3C//DTD SVG 1.1//EN" "http://www.w3.org/Graphics/SVG/1.1/DTD/svg11.dtd">
<svg version="1.1" id="Layer_1" xmlns="http://www.w3.org/2000/svg" xmlns:xlink="http://www.w3.org/1999/xlink" x="0px" y="0px"
	 viewBox="0 0 78 89" enable-background="new 0 0 78 89" xml:space="preserve">
<path fill-rule="evenodd" clip-rule="evenodd" fill="#69BA42" d="M76,67.5v5.2c0,0.7-0.6,1.3-1.3,1.3H43.9v7.3h10
	c0.7,0,1.3,0.6,1.3,1.3v3.9h12.6c0.7,0,1.3,0.6,1.3,1.3S68.5,89,67.8,89H53.9H26.1H12.2c-0.7,0-1.3-0.6-1.3-1.3s0.6-1.3,1.3-1.3
	h12.6v-3.9c0-0.7,0.6-1.3,1.3-1.3h10v-7.3H5.3c-0.7,0-1.3-0.6-1.3-1.3v-5.2c0,0,0-0.1,0-0.1c0,0,0,0,0,0c0,0,0-0.1,0-0.1l2.3-11
	c0,0,0,0,0,0l2.3-11c0,0,0,0,0,0l2.3-11c0.1-0.6,0.7-1,1.3-1h55.5c0.6,0,1.1,0.4,1.3,1l2.3,11c0,0,0,0,0,0l2.3,11c0,0,0,0,0,0
	l2.3,11c0,0,0,0,0,0c0,0,0,0.1,0,0.1C76,67.3,76,67.4,76,67.5C76,67.4,76,67.4,76,67.5L76,67.5C76,67.5,76,67.5,76,67.5z M27.4,83.8
	v2.6h25.2v-2.6h-10h-5.2H27.4z M41.3,81.2v-7.3h-2.6v7.3H41.3z M11,46.8l-1.8,8.4H28l0.6-8.4H11z M13.3,35.8l-1.8,8.4h17.2l0.6-8.4
	H13.3z M48,35.8H32l-0.6,8.4h17.3L48,35.8z M48.8,46.8H31.2l-0.6,8.4h18.8L48.8,46.8z M49.6,57.8H30.4l-0.6,8.4h20.4L49.6,57.8z
	 M66.7,35.8H50.6l0.6,8.4h17.2L66.7,35.8z M69,46.8H51.4l0.6,8.4h18.8L69,46.8z M71.3,57.8H52.2l0.6,8.4h20.3L71.3,57.8z M73.4,68.7
	H51.6c0,0,0,0,0,0c0,0,0,0,0,0H28.4c0,0,0,0,0,0c0,0,0,0,0,0h-10h0c-0.7,0-1.3-0.6-1.3-1.3c0-0.7,0.6-1.3,1.3-1.3h0h8.8l0.6-8.4H8.7
	l-1.8,8.4h5.9c0.7,0,1.3,0.6,1.3,1.3c0,0.7-0.6,1.3-1.3,1.3H6.6v2.6h30.8c0,0,0,0,0,0h5.2c0,0,0,0,0,0l0,0h30.8V68.7z M52.1,15.7
	h-1.7c-0.7,0-1.3-0.6-1.3-1.3c0-0.7,0.6-1.3,1.3-1.3h1.7c0.7,0,1.3,0.6,1.3,1.3C53.4,15.1,52.9,15.7,52.1,15.7z M48.3,8
	c-0.3,0.3-0.6,0.4-0.9,0.4c-0.3,0-0.7-0.1-0.9-0.4c-0.5-0.5-0.5-1.3,0-1.8l1.2-1.2c0.5-0.5,1.3-0.5,1.8,0c0.5,0.5,0.5,1.3,0,1.8
	L48.3,8z M48.3,20.9l1.2,1.2c0.5,0.5,0.5,1.3,0,1.8c-0.3,0.3-0.6,0.4-0.9,0.4c-0.3,0-0.7-0.1-0.9-0.4l-1.2-1.2
	c-0.5-0.5-0.5-1.3,0-1.8C47,20.4,47.8,20.4,48.3,20.9z M41.3,24.8v1.7c0,0.7-0.6,1.3-1.3,1.3c-0.7,0-1.3-0.6-1.3-1.3v-1.7
	c0-0.7,0.6-1.3,1.3-1.3S41.3,24.1,41.3,24.8z M40,20.9c-3.6,0-6.5-2.9-6.5-6.5c0-3.6,2.9-6.5,6.5-6.5c3.6,0,6.5,2.9,6.5,6.5
	C46.5,18,43.6,20.9,40,20.9z M40,10.5c-2.2,0-3.9,1.8-3.9,3.9c0,2.2,1.8,3.9,3.9,3.9c2.2,0,3.9-1.8,3.9-3.9
	C43.9,12.3,42.2,10.5,40,10.5z M40,5.3c-0.7,0-1.3-0.6-1.3-1.3V2.3C38.7,1.6,39.3,1,40,1s1.3,0.6,1.3,1.3V4
	C41.3,4.7,40.7,5.3,40,5.3z M32.6,8.4c-0.3,0-0.7-0.1-0.9-0.4l-1.2-1.2c-0.5-0.5-0.5-1.3,0-1.8c0.5-0.5,1.3-0.5,1.8,0l1.2,1.2
	c0.5,0.5,0.5,1.3,0,1.8C33.3,8.2,33,8.4,32.6,8.4z M33.6,20.9c0.5,0.5,0.5,1.3,0,1.8l-1.2,1.2c-0.3,0.3-0.6,0.4-0.9,0.4
	s-0.7-0.1-0.9-0.4c-0.5-0.5-0.5-1.3,0-1.8l1.2-1.2C32.2,20.4,33,20.4,33.6,20.9z M30.9,14.4c0,0.7-0.6,1.3-1.3,1.3h-1.7
	c-0.7,0-1.3-0.6-1.3-1.3s0.6-1.3,1.3-1.3h1.7C30.3,13.1,30.9,13.7,30.9,14.4z"/>
</svg>
