<?xml version="1.0" encoding="utf-8"?>
<!-- Generator: Adobe Illustrator 17.1.0, SVG Export Plug-In . SVG Version: 6.00 Build 0)  -->
<!DOCTYPE svg PUBLIC "-//W3C//DTD SVG 1.1//EN" "http://www.w3.org/Graphics/SVG/1.1/DTD/svg11.dtd">
<svg version="1.1" id="Layer_1" xmlns="http://www.w3.org/2000/svg" xmlns:xlink="http://www.w3.org/1999/xlink" x="0px" y="0px"
	 viewBox="0 0 28 22" enable-background="new 0 0 28 22" xml:space="preserve">
<path fill-rule="evenodd" clip-rule="evenodd" fill="black" d="M7.1,3L1,3v19h3v-3.8c0-0.4,0.4-0.8,0.8-0.8h2.3V3z M20.3,1H8.7v21
	h3.4v-4.2c0-0.4,0.4-0.8,0.8-0.8h3c0.5,0,0.8,0.4,0.8,0.8V22h3.4V1z M28,3h-5.7c0,0,0,0,0,0h-0.3v14.4h2.3c0.5,0,0.8,0.4,0.8,0.8V22
	h3V3z M23.8,15.5V14c0-0.2,0.1-0.3,0.3-0.3h1.6c0.2,0,0.3,0.1,0.3,0.3v1.5c0,0.2-0.1,0.3-0.3,0.3h-1.6
	C23.9,15.8,23.8,15.7,23.8,15.5z M25.6,11.5h-1.6c-0.2,0-0.3-0.1-0.3-0.3V9.6c0-0.2,0.1-0.3,0.3-0.3h1.6c0.2,0,0.3,0.1,0.3,0.3v1.5
	C25.9,11.3,25.8,11.5,25.6,11.5z M25.6,7.1h-1.6c-0.2,0-0.3-0.1-0.3-0.3V5.3c0-0.2,0.1-0.3,0.3-0.3h1.6c0.2,0,0.3,0.1,0.3,0.3v1.5
	C25.9,7,25.8,7.1,25.6,7.1z M16,13.9v-1.5c0-0.2,0.1-0.3,0.3-0.3h1.6c0.2,0,0.3,0.1,0.3,0.3v1.5c0,0.2-0.1,0.3-0.3,0.3h-1.6
	C16.1,14.2,16,14.1,16,13.9z M17.8,9.9h-1.6c-0.2,0-0.3-0.1-0.3-0.3V8c0-0.2,0.1-0.3,0.3-0.3h1.6c0.2,0,0.3,0.1,0.3,0.3v1.5
	C18.1,9.7,18,9.9,17.8,9.9z M17.8,5.5h-1.6c-0.2,0-0.3-0.1-0.3-0.3V3.7c0-0.2,0.1-0.3,0.3-0.3h1.6c0.2,0,0.3,0.1,0.3,0.3v1.5
	C18.1,5.4,18,5.5,17.8,5.5z M12.7,14.2h-1.6c-0.2,0-0.3-0.1-0.3-0.3v-1.5c0-0.2,0.1-0.3,0.3-0.3h1.6c0.2,0,0.3,0.1,0.3,0.3v1.5
	C13,14.1,12.9,14.2,12.7,14.2z M12.7,9.9h-1.6c-0.2,0-0.3-0.1-0.3-0.3V8c0-0.2,0.1-0.3,0.3-0.3h1.6C12.9,7.8,13,7.9,13,8v1.5
	C13,9.7,12.9,9.9,12.7,9.9z M12.7,5.5h-1.6c-0.2,0-0.3-0.1-0.3-0.3V3.7c0-0.2,0.1-0.3,0.3-0.3h1.6c0.2,0,0.3,0.1,0.3,0.3v1.5
	C13,5.4,12.9,5.5,12.7,5.5z M3.1,15.5V14c0-0.2,0.1-0.3,0.3-0.3h1.6c0.2,0,0.3,0.1,0.3,0.3v1.5c0,0.2-0.1,0.3-0.3,0.3H3.4
	C3.2,15.8,3.1,15.7,3.1,15.5z M4.9,11.5H3.4c-0.2,0-0.3-0.1-0.3-0.3V9.6c0-0.2,0.1-0.3,0.3-0.3h1.6c0.2,0,0.3,0.1,0.3,0.3v1.5
	C5.2,11.3,5.1,11.5,4.9,11.5z M4.9,7.1H3.4C3.2,7.1,3.1,7,3.1,6.8V5.3C3.1,5.1,3.2,5,3.4,5h1.6c0.2,0,0.3,0.1,0.3,0.3v1.5
	C5.2,7,5.1,7.1,4.9,7.1z"/>
</svg>
