<?xml version="1.0" encoding="utf-8"?>
<!-- Generator: Adobe Illustrator 17.1.0, SVG Export Plug-In . SVG Version: 6.00 Build 0)  -->
<!DOCTYPE svg PUBLIC "-//W3C//DTD SVG 1.1//EN" "http://www.w3.org/Graphics/SVG/1.1/DTD/svg11.dtd">
<svg version="1.1" id="Layer_1" xmlns="http://www.w3.org/2000/svg" xmlns:xlink="http://www.w3.org/1999/xlink" x="0px" y="0px"
	 viewBox="0 0 78 89" enable-background="new 0 0 78 89" xml:space="preserve">
<path fill-rule="evenodd" clip-rule="evenodd" fill="#69BA42" d="M75.8,61.5c-0.2-0.4-0.5-0.6-0.9-0.7c-0.1,0-8.1-1.8-18.4-3.2
	c0,0,0-0.1,0-0.1c-4.5-10.6-6-10.6-6.8-10.6c-1,0-5.8,1-9.7,1.8V38.5c0.1,0,0.1,0,0.2,0c1.3,0.4,2.7,0.5,4.1,0.5
	c4.1,0,8.1-1.6,11.1-4.6c4.2-4.2,5.6-10.2,3.9-15.9c-0.1-0.4-0.5-0.8-0.9-0.9c-5.6-1.8-11.7-0.3-15.8,3.9c-0.6,0.6-1.2,1.3-1.7,2.1
	c-0.5-4.1-2.4-8-5.4-11.1c-5-5-12.3-6.8-19.1-4.7c-0.4,0.1-0.8,0.5-0.9,0.9C13.2,15.6,15,22.9,20,28c3.6,3.6,8.4,5.6,13.4,5.6
	c1.3,0,2.6-0.1,3.9-0.4v16.2c-0.5,0.1-1,0.2-1.4,0.3c-2.9-0.6-7.7-1.2-9.3,0.4L24,52.6l-3.8,1.3c-4.7,1.6-6.3,8.5-6.4,9.3
	c-1.6-1-3.2-2.1-4.7-3.5c-0.3-0.2-0.6-0.4-0.9-0.4c-3.1,0-4.2,1.5-4.2,2.8c0,0.4,0,1.1,2.9,4.5c1.1,1.3,3.5,3.9,6.7,6.8
	c5,4.4,12.4,9.5,19.4,9.5c8.1,0,13.9-1.7,18.1-3c2.3-0.7,4.1-1.2,5.4-1.2c4.2,0,12.3-1.4,12.7-1.4c0.5-0.1,0.9-0.4,1.1-0.9l5.5-13.9
	C76.1,62.3,76,61.9,75.8,61.5z M44.4,23.5c3.2-3.3,7.9-4.5,12.3-3.4c1.1,4.4-0.1,9.1-3.4,12.4c-3,3-7.1,4.3-11.2,3.6
	c1.1-1.9,2.7-4,4-4.7c0.7-0.3,1-1.2,0.6-1.9c-0.3-0.7-1.2-1-1.9-0.6c-1.6,0.8-3.1,2.7-4.3,4.4C40.5,29.7,41.8,26.2,44.4,23.5z
	 M30.9,23c3.6,2.4,4.9,7.4,5,7.5c0,0,0,0,0,0c-5.1,0.8-10.3-0.8-14-4.6c-4.1-4.1-5.7-10.1-4.2-15.7c5.6-1.5,11.5,0.1,15.6,4.2
	c3.6,3.6,5.2,8.6,4.6,13.5c-0.8-2-2.5-5.3-5.5-7.3c-0.6-0.4-1.5-0.3-1.9,0.4C30.1,21.7,30.3,22.6,30.9,23z M16.4,63.8
	c0.3-1.7,1.8-6.4,4.6-7.3l4.2-1.4c0.2-0.1,0.4-0.2,0.5-0.3l2.7-2.8c0.7-0.4,4-0.3,7.1,0.4c0.2,0,0.4,0,0.6,0
	c5.5-1.2,11.6-2.5,13.2-2.7c0.8,0.9,2.5,4.2,4,7.5c-1.6-0.2-3.2-0.4-4.9-0.6c-13.8-1.4-21.7-0.2-23.5,3.5c-0.4,0.7-0.3,1.6,0.1,2.2
	c1.1,1.9,5.2,2.6,15,2.6c1.4,0,2,0.4,2.2,0.7c0.1,0.3,0,0.7-0.3,1.1c-0.7,0.4-5.4,1.8-12.1,1.3c-3.8-0.2-8.7-1.1-13.6-3.5
	C16.3,64.3,16.4,64.1,16.4,63.8z M68.1,74.8c-2.1,0.3-8.2,1.2-11.5,1.2c-1.7,0-3.7,0.6-6.2,1.3c-4.1,1.2-9.6,2.8-17.3,2.8
	c-6,0-12.6-4.6-17.1-8.4c-4.8-4.1-8-8-9-9.5c0.2-0.1,0.4-0.1,0.7-0.1c7.5,6.6,16.3,8.3,22.4,8.6c6.3,0.3,12.4-0.9,13.7-2.1
	c1.1-1.1,1.5-2.8,1-4.1c-0.4-0.9-1.5-2.4-4.7-2.4c-8.6,0-11.5-0.6-12.4-1.1c0.9-1,4.7-3.3,20.6-1.7c10.7,1.1,20.8,3,24.5,3.8
	L68.1,74.8z"/>
</svg>
