<?xml version="1.0" encoding="utf-8"?>
<!-- Generator: Adobe Illustrator 17.1.0, SVG Export Plug-In . SVG Version: 6.00 Build 0)  -->
<!DOCTYPE svg PUBLIC "-//W3C//DTD SVG 1.1//EN" "http://www.w3.org/Graphics/SVG/1.1/DTD/svg11.dtd">
<svg version="1.1" id="Layer_1" xmlns="http://www.w3.org/2000/svg" xmlns:xlink="http://www.w3.org/1999/xlink" x="0px" y="0px"
	 viewBox="0 0 102 75" enable-background="new 0 0 102 75" xml:space="preserve">
<path fill-rule="evenodd" clip-rule="evenodd" fill="#66B93E" d="M74.3,8c-5.8,0-11.1,1.7-15.6,5c-3.9,2.9-6.8,6.9-8,11
	c-1.3,4.7-0.2,8.9,2.8,11.7c-1.1,1.9-2.1,3.8-2.8,5.7c-0.7-1.8-1.7-3.4-2.8-4.8c1.5-2.4,1.7-5.4,0.5-8.5c-1.1-2.9-3.4-5.5-6.5-7.5
	c-3.3-2.1-7.1-3.2-11.2-3.2c-5.2,0-10.5,1.9-15.3,5.4L13,24.7l3.1,0.8c5.1,1.4,9.2,5.3,12.8,8.8c3.7,3.6,7.2,6.9,11.2,6.9
	c0,0,0,0,0,0c2,0,3.9-0.8,5.8-2.4c1.8,2.6,3.1,5.7,3.1,9.5V68h3.1c0,0,0-18.9,0-19.9c0-2.5,1.4-6.1,4-10.6c1.9,1,3.7,1.5,5.4,1.5
	c5.7,0,9.4-5.4,13.3-11.2c3.5-5.1,7.4-10.9,13.3-13.9l2.9-1.5l-2.9-1.3C83.4,9.1,78.8,8,74.3,8z M40.1,38.2
	C40.1,38.2,40.1,38.2,40.1,38.2c-2.8,0-5.7-2.8-9.1-6.1c-3.2-3.1-6.7-6.5-11.1-8.5c3.6-2.1,7.3-3.2,11-3.2c7.4,0,13.1,4.4,14.8,8.7
	c0.4,1.1,0.9,3,0.2,4.8c-2.8-2.8-5.8-4.7-7.7-5.9c-0.6-0.3-1-0.7-1.4-0.9L35,29.8c0.4,0.3,0.9,0.6,1.5,1c2,1.2,4.9,3.1,7.5,5.8
	C42.6,37.7,41.4,38.2,40.1,38.2z M72.3,26.1c-3.6,5.3-6.7,9.8-10.7,9.8c-1.2,0-2.5-0.4-3.9-1.1c0.1-0.2,0.3-0.4,0.4-0.7
	c3.1-4.8,6.2-8.7,6.2-8.8l-2.4-1.9c-0.3,0.3-3.5,4.4-6.7,9.5c-1.9-2-2.4-4.9-1.5-8.1c1-3.4,3.5-6.9,6.8-9.4c2.7-2,7.3-4.4,13.7-4.4
	c3.2,0,6.4,0.6,9.7,1.7C78.9,16.3,75.4,21.5,72.3,26.1z"/>
</svg>
