<?xml version="1.0" encoding="utf-8"?>
<!-- Generator: Adobe Illustrator 17.1.0, SVG Export Plug-In . SVG Version: 6.00 Build 0)  -->
<!DOCTYPE svg PUBLIC "-//W3C//DTD SVG 1.1//EN" "http://www.w3.org/Graphics/SVG/1.1/DTD/svg11.dtd">
<svg version="1.1" id="Layer_1" xmlns="http://www.w3.org/2000/svg" xmlns:xlink="http://www.w3.org/1999/xlink" x="0px" y="0px"
	 viewBox="0 0 102 75" enable-background="new 0 0 102 75" xml:space="preserve">
<path fill-rule="evenodd" clip-rule="evenodd" fill="#66B93E" d="M101,59.6h-6.5c-1,4.8-5.2,8.4-10.3,8.4c-5.1,0-9.3-3.6-10.3-8.4h-6.5
	H46.1c-1,4.8-5.2,8.4-10.3,8.4c-5.1,0-9.3-3.6-10.3-8.4H21c-5.1,0-4.2-0.9-4.2-5.6h-2.1c-1.2,0-2.1,0.5-2.1-0.7
	c0-1.2,0.9-0.7,2.1-0.7h2.1V41.3h-6.3c-1.2,0-2.1,0.5-2.1-0.7c0-1.2,0.9-0.7,2.1-0.7h6.3V28.7H6.3c-1.2,0-2.1,0.5-2.1-0.7
	c0-1.2,0.9-0.7,2.1-0.7h10.5l0-11.2H2.1C0.9,16,0,16.5,0,15.3c0-1.2,0.9-0.7,2.1-0.7h14.7C16.8,10,18.7,9,21,9h46.3
	c3.5,0,4.2,0.7,4.2,4.2v8.4h0.1l12.4,0L101,38.5L101,59.6z M35.8,65.7c4.5,0,8.2-3.7,8.2-8.2c0-4.5-3.7-8.2-8.2-8.2
	c-4.5,0-8.2,3.7-8.2,8.2C27.6,62,31.2,65.7,35.8,65.7z M19,11.1l0,46.4h6.5c-0.2-6.2,5.2-10.5,10.3-10.5c5.1,0,10,4.6,10.3,10.5
	h23.3l0-46.4H19z M84.2,65.7c4.5,0,8.2-3.7,8.2-8.2c0-4.5-3.7-8.2-8.2-8.2c-4.5,0-8.2,3.7-8.2,8.2C76,62,79.6,65.7,84.2,65.7z
	 M83.1,23.8l-11.4,0l-0.1,0.7l0,33h2.3c0-6.4,5.2-10.5,10.3-10.5c5.1,0,10,4.1,10.3,10.5h4.4l0-17.9L83.1,23.8z M84.2,55.4
	c1.2,0,2.1,0.9,2.1,2.1c0,1.2-0.9,2.1-2.1,2.1c-1.2,0-2.1-0.9-2.1-2.1C82.1,56.3,83,55.4,84.2,55.4z M35.8,55.4
	c1.2,0,2.1,0.9,2.1,2.1c0,1.2-0.9,2.1-2.1,2.1c-1.2,0-2.1-0.9-2.1-2.1C33.7,56.3,34.6,55.4,35.8,55.4z"/>
</svg>
