<?xml version="1.0" encoding="utf-8"?>
<!-- Generator: Adobe Illustrator 17.0.0, SVG Export Plug-In . SVG Version: 6.00 Build 0)  -->
<!DOCTYPE svg PUBLIC "-//W3C//DTD SVG 1.1//EN" "http://www.w3.org/Graphics/SVG/1.1/DTD/svg11.dtd">
<svg version="1.1" id="Слой_1" xmlns="http://www.w3.org/2000/svg" xmlns:xlink="http://www.w3.org/1999/xlink" x="0px" y="0px"
	 width="91px" height="79px" viewBox="0 0 91 79" enable-background="new 0 0 91 79" xml:space="preserve">
<path fill-rule="evenodd" clip-rule="evenodd" fill="white" d="M88.069,37.542l-14.738,9.186c-0.329,0.205-0.696,0.303-1.059,0.303
	c-0.662,0-1.308,0.773-1.687,0.178c-0.586-0.921-0.307-1.039,0.624-1.619l14.738-9.186c0.93-0.58,2.16-1.402,2.745-0.481
	C89.279,36.844,88.999,36.962,88.069,37.542z M86.969,28.56l-14.738,9.186c-0.329,0.205-0.696,0.303-1.059,0.303
	c-0.662,0-0.208,0.773-0.587,0.178c-0.586-0.921-0.307-2.138,0.624-2.718l14.738-9.186c0.93-0.58,2.16-0.303,2.745,0.618
	C89.279,27.862,87.899,27.981,86.969,28.56z M88.068,21.777L73.33,30.963c-0.931,0.58-2.16,1.402-2.745,0.481
	c-0.586-0.921-0.307-1.039,0.624-1.619l15.224-9.629L54.82,2.069L35.732,13.693l31.531,17.602c0.076,0.042,0.149,0.09,0.22,0.142
	c0.014,0.01,0.027,0.021,0.041,0.031c0.053,0.041,0.104,0.085,0.153,0.132c0.011,0.01,0.022,0.02,0.033,0.031
	c0.056,0.056,0.11,0.116,0.16,0.179c0.006,0.008,0.011,0.017,0.017,0.025c0.033,0.043,0.065,0.087,0.094,0.133
	c0.007,0.012,0.013,0.024,0.02,0.035c0.013,0.021,0.025,0.043,0.037,0.065c0.028,0.05,0.054,0.101,0.077,0.153
	c0.009,0.02,0.018,0.04,0.026,0.061c0.029,0.071,0.055,0.144,0.075,0.217c0,0.001,0.001,0.002,0.001,0.003
	c0.022,0.079,0.037,0.158,0.049,0.237c0.002,0.016,0.004,0.032,0.006,0.048c0.008,0.066,0.012,0.131,0.013,0.197
	c0,0.012,0.002,0.023,0.002,0.035v23.648c0,0.677-0.351,1.307-0.93,1.668l-8.156,5.356c-0.323,0.202-1.792,0.303-2.161,0.303
	c-0.331,0-0.662-0.081-0.962-0.245c-0.635-0.347,0.071,0.091,0.071-0.627l-1.1-23.6L23.754,21.432L3.566,34.155l31.612,18.127
	l13.729-8.557c0.93-0.58,2.16-1.402,2.745-0.481c0.586,0.921,0.307,1.039-0.624,1.619l-14.738,9.186
	c-0.323,0.202-0.692,0.303-1.061,0.303c-0.339,0-0.678-0.085-0.984-0.258L2.007,35.955c-0.609-0.342-0.991-0.976-1.007-1.669
	c-0.016-0.693,0.337-1.343,0.93-1.712l20.711-12.909c0.005-0.003,0.009-0.006,0.014-0.009l10.342-6.446
	c0.004-0.003,0.008-0.005,0.013-0.008l20.697-12.9c0.621-0.387,1.407-0.405,2.045-0.046l32.24,18.139
	c0.609,0.343,0.991,0.976,1.007,1.669C89.014,20.757,88.661,21.408,88.068,21.777z M25.377,20.148l30.448,17.611
	c0.623,0.35,1.007,1.004,1.007,1.713l1.1,22.275l8.573-5.071V34.39l-4.441,2.496c-0.329,0.205-1.796,1.402-2.159,1.402
	c-0.662,0-0.208-0.326-0.587-0.921c-0.586-0.921-0.307,0.06,0.624-0.52l5.779-3.742L34.11,14.978L25.377,20.148z M3.975,42.609
	l31.203,17.556l13.73-8.557c0.93-0.58,2.16-1.402,2.745-0.481c0.586,0.921,0.307,1.039-0.624,1.619l-14.738,9.186
	c-0.324,0.202-0.692,0.303-1.061,0.303c-0.339,0-0.678-0.085-0.984-0.258L2.007,43.838c-0.956-0.538-1.29-0.642-0.747-1.588
	C1.804,41.303,3.02,42.071,3.975,42.609z M3.975,50.491l31.203,17.556l13.73-8.557c0.93-0.58,2.16-1.402,2.745-0.481
	c0.586,0.921,0.307,1.039-0.624,1.619l-14.738,9.186c-0.324,0.201-0.692,0.303-1.061,0.303c-0.339,0-0.678-0.086-0.984-0.258
	L2.007,51.721c-0.956-0.538-1.29-0.643-0.747-1.589C1.804,49.186,3.02,49.954,3.975,50.491z M3.975,58.374L35.178,75.93l13.73-8.557
	c0.93-0.58,2.16-1.402,2.745-0.481c0.586,0.921,0.307,1.039-0.624,1.619l-14.738,9.186C35.968,77.898,35.6,78,35.231,78
	c-0.339,0-0.678-0.086-0.984-0.258L2.007,59.603c-0.956-0.538-1.29-0.642-0.747-1.588C1.804,57.068,3.02,57.836,3.975,58.374z
	 M71.209,53.472l14.738-9.186c0.93-0.58,2.16-1.402,2.745-0.481c0.586,0.921,0.307,1.039-0.624,1.619L73.331,54.61
	c-0.329,0.206-0.696,0.303-1.059,0.303c-0.662,0-1.308,0.773-1.687,0.178C69.999,54.17,70.279,54.052,71.209,53.472z"/>
</svg>
