<?xml version="1.0" encoding="utf-8"?>
<!-- Generator: Adobe Illustrator 17.0.0, SVG Export Plug-In . SVG Version: 6.00 Build 0)  -->
<!DOCTYPE svg PUBLIC "-//W3C//DTD SVG 1.1//EN" "http://www.w3.org/Graphics/SVG/1.1/DTD/svg11.dtd">
<svg version="1.1" id="Слой_1" xmlns="http://www.w3.org/2000/svg" xmlns:xlink="http://www.w3.org/1999/xlink" x="0px" y="0px"
	 width="91px" height="83px" viewBox="0 0 91 83" enable-background="new 0 0 91 83" xml:space="preserve">
<path fill="white" d="M39.103,17.566c-2.415-2.482-6.191-3.835-10.918-3.911c-4.287-0.062-8.541,0.768-12.49,2.44
	c-0.578,0.246-0.848,0.914-0.602,1.493c0.097,0.23,0.266,0.42,0.481,0.543c2.43,1.415,4.308,3.614,5.326,6.238
	c0.265,0.695,0.47,1.419,0.688,2.186c0.162,0.569,0.328,1.159,0.523,1.738c0.295,0.939,0.713,1.834,1.244,2.664
	c1.773,2.681,4.705,4.202,7.998,4.202c3.44-0.002,6.682-1.611,8.767-4.351c1.492,1.435,2.833,3.017,4.005,4.724
	c0.062,0.165,0.161,0.314,0.289,0.434c1.418,2.133,2.41,4.521,2.92,7.032c1.159,6.008-0.943,12.462-6.244,19.204
	c-2.768-4.253-8.39-5.566-12.75-2.978l-9.077,5.405c-0.54,0.322-0.718,1.021-0.396,1.562l1.83,3.083l-4.43,2.639
	c-0.544,0.314-0.729,1.011-0.415,1.556c0.315,0.545,1.01,0.731,1.554,0.415c0.007-0.004,0.015-0.009,0.023-0.013l4.431-2.639
	l3.66,6.167l-4.431,2.639c-0.542,0.317-0.726,1.014-0.411,1.557c0.316,0.544,1.013,0.728,1.555,0.411
	c0.006-0.003,0.012-0.007,0.017-0.01l4.431-2.639l1.83,3.083c0.321,0.541,1.018,0.718,1.558,0.397l9.078-5.405
	c4.481-2.675,5.955-8.48,3.294-12.974l-0.103-0.174c6.127-7.522,8.56-14.826,7.23-21.719c-0.561-2.779-1.653-5.425-3.215-7.789
	c0.235-2.879,0.782-5.723,1.63-8.483c2.429,1.866,5.394,2.899,8.454,2.945c0.08,0.001,0.16,0.002,0.239,0.002
	c4.763,0,8.87-2.365,11.018-6.358c0.584-1.127,1.016-2.326,1.286-3.566c0.185-0.778,0.334-1.569,0.477-2.335
	c0.197-1.044,0.381-2.031,0.651-2.993c1.049-3.658,3.309-6.849,6.408-9.051c0.514-0.361,0.639-1.072,0.279-1.587
	c-0.142-0.203-0.348-0.355-0.584-0.431c-5.351-1.711-10.998-2.289-16.583-1.699C53.509,1.88,48.785,4.067,45.965,7.547
	c-3.249,4.09-3.868,9.684-1.591,14.386c0.475,0.953,1.07,1.84,1.773,2.639c-0.822,2.437-1.42,4.945-1.786,7.491
	c-0.961-1.162-1.993-2.263-3.09-3.297c0.025-0.059,0.05-0.119,0.073-0.179C42.776,24.788,41.904,20.503,39.103,17.566L39.103,17.566
	z M37.984,75.477l-8.099,4.822l-6.651-11.209l-1.83-3.085l8.099-4.823c3.408-2.024,7.808-0.903,9.837,2.506l1.147,1.933
	C42.508,69.036,41.388,73.444,37.984,75.477L37.984,75.477z M47.731,8.983c3.074-3.794,8.298-5.083,12.139-5.496
	c1.329-0.142,2.665-0.214,4.001-0.213c3.226,0,6.439,0.408,9.563,1.213c-2.639,2.381-4.552,5.461-5.516,8.885
	c-0.297,1.059-0.5,2.141-0.697,3.189c-0.146,0.774-0.282,1.503-0.455,2.228c-0.226,1.048-0.587,2.06-1.077,3.013
	c-1.743,3.242-5.104,5.161-9.018,5.161c-0.066,0-0.132,0-0.198-0.002c-2.838-0.036-5.57-1.087-7.701-2.964
	c0.064-0.168,0.129-0.335,0.197-0.503c3.166-7.885,8.415-12.664,15.604-14.207c0.615-0.127,1.011-0.729,0.885-1.345
	c-0.127-0.616-0.727-1.014-1.342-0.887c-0.007,0.001-0.013,0.002-0.02,0.004C56.409,8.711,50.543,13.9,47.093,22.083
	c-0.254-0.371-0.481-0.759-0.682-1.162C44.543,17.156,45.086,12.247,47.731,8.983L47.731,8.983z M27.823,19.416
	c-0.553-0.297-1.243-0.088-1.539,0.467c-0.297,0.554-0.088,1.245,0.466,1.541c4.672,2.505,8.566,5.115,11.683,7.832
	c-1.338,1.95-3.602,3.3-6.147,3.575c-2.902,0.313-5.534-0.858-7.036-3.132c-0.421-0.664-0.752-1.381-0.985-2.131
	c-0.177-0.528-0.33-1.065-0.491-1.634c-0.222-0.781-0.45-1.588-0.75-2.377c-0.917-2.399-2.452-4.511-4.45-6.122
	c3.083-1.041,6.32-1.549,9.574-1.502c2.87,0.046,6.817,0.643,9.327,3.223c1.986,2.041,2.748,5.231,1.963,7.969
	C36.271,24.443,32.4,21.873,27.823,19.416L27.823,19.416z M27.823,19.416"/>
</svg>
