<?xml version="1.0" encoding="utf-8"?>
<!-- Generator: Adobe Illustrator 17.0.0, SVG Export Plug-In . SVG Version: 6.00 Build 0)  -->
<!DOCTYPE svg PUBLIC "-//W3C//DTD SVG 1.1//EN" "http://www.w3.org/Graphics/SVG/1.1/DTD/svg11.dtd">
<svg version="1.1" id="Слой_1" xmlns="http://www.w3.org/2000/svg" xmlns:xlink="http://www.w3.org/1999/xlink" x="0px" y="0px"
	 width="91px" height="94px" viewBox="0 0 91 94" enable-background="new 0 0 91 94" xml:space="preserve">
<path fill-rule="evenodd" clip-rule="evenodd" fill="white" d="M85.295,66.175h-3.027c-1.879,5.466-5.389,10.319-10.014,14.233
	l1.606,6.429c0.085,0.341,0.125,0.683,0.125,1.018c-0.001,0.961-0.33,1.868-0.898,2.601c-0.567,0.731-1.389,1.293-2.364,1.532
	l-7.706,1.889C62.676,93.96,62.33,94,61.991,94c-0.969,0-1.889-0.325-2.626-0.889c-0.737-0.561-1.305-1.377-1.545-2.341
	l-0.575-2.301c-4.347,1.316-9.035,2.038-13.924,2.038c-4.89,0-9.579-0.717-13.927-2.033l-0.572,2.297
	c-0.24,0.964-0.808,1.78-1.547,2.341C26.537,93.674,25.618,94,24.65,94c-0.339,0-0.686-0.04-1.027-0.124l-7.706-1.889
	c-0.975-0.238-1.799-0.799-2.367-1.532c-0.568-0.732-0.895-1.642-0.898-2.601c0-0.339,0.042-0.683,0.128-1.021v0.003l1.599-6.406
	C7.276,74.435,2.813,66.151,2.815,56.977c-0.002-4.732,2.074-10.114,4.199-14.183c-1.456-0.292-2.778-1.791-3.844-2.669
	c-1.509-1.238-1.643-1.289-1.641-3.336c0-0.881-1.05-1.595-0.161-1.595s1.61,0.714,1.61,1.595c0.002,0.984,0.47,1.908,1.369,2.656
	c0.872,0.722,2.141,1.209,3.573,1.231c1.865-2.775,4.184-5.303,6.871-7.506c4.053-3.326,8.947-5.923,14.375-7.597
	c-1.622-2.488-2.572-5.444-2.572-8.626C26.593,8.14,33.801,1.001,42.696,1c8.892,0.001,16.101,7.14,16.103,15.949
	c-0.002,3.052-0.883,5.891-2.384,8.316c2.535,0.722,4.961,1.639,7.245,2.74c2.965-2.821,6.737-4.545,10.585-4.553
	c1.564,0,3.135,0.291,4.626,0.914c0.778,0.325,1.17,1.189,0.9,1.982L76.04,37.23c2.521,2.859,5.399,6.957,6.736,10.423h2.519
	c3.147,0.005,5.698,1.646,5.704,4.763v8.109C90.995,63.644,88.444,66.169,85.295,66.175z M60.059,91.777
	c0.061,0.24,0.195,0.434,0.384,0.58c0.19,0.144,0.425,0.225,0.661,0.224l0.255-0.03l10.361-2.774
	c0.245-0.059,0.439-0.192,0.586-0.382c0.147-0.188,0.23-0.421,0.229-0.654l-0.029-0.252l-1.262-6.824
	c-0.361,0.253-2.48,1.407-2.851,1.649c-2.481,1.622-6.969,3.886-9.864,4.994L60.059,91.777z M14.134,88.492l-0.002,0.004
	l-0.029,0.248c-0.002,0.232,0.079,0.466,0.226,0.653c0.147,0.187,0.344,0.321,0.589,0.381l10.363,2.774l0.253,0.03
	c0.235,0.001,0.469-0.08,0.66-0.225c0.188-0.146,0.324-0.341,0.385-0.581l1.53-3.466c-3.326-1.271-9.951-4.679-12.721-6.62
	L14.134,88.492z M57.336,16.5c0-7.582-7.232-13.729-15.06-13.729c-7.828,0-14.174,6.146-14.174,13.729
	c0,7.582,6.346,14.614,14.174,14.614C50.105,31.114,57.336,24.082,57.336,16.5z M87.936,49.794
	c-0.457-0.451-1.957-0.723-2.639-0.725h-2.755c-0.69,0-1.304-0.437-1.524-1.085c-1.27-3.723-3.394-6.291-6.211-9.314
	c-0.402-0.43-0.532-1.04-0.341-1.594l3.501-11.103c-0.636-0.142-2.173-1.105-2.833-1.105c-3.132-0.009-7.415,1.597-9.951,4.364
	c-0.491,0.533-1.287,0.674-1.935,0.34c-2.759-1.425-4.895-1.646-8.087-2.444c-1.042,1.067-5.775,3.758-7.08,4.506
	c1.684,0.242,6.031,0.538,7.714,0.937c0.866,0.206,1.399,0.18,1.191,1.037c-0.207,0.857-1.076,0.499-1.941,0.294
	c-4.033-0.955-8.079-1.429-12.038-1.428c-4.219-0.001-8.337,0.538-12.227,1.602c-0.858,0.235-1.745,0.623-1.984-0.226
	c-0.237-0.848,0.266-0.842,1.124-1.076c1.603-0.438,5.903-0.767,7.564-1.037c-1.274-0.71-5.989-3.352-7.02-4.364
	c-5.539,1.529-8.59,2.47-12.731,5.595C9.226,39.39,4.265,48.695,4.263,56.978c0.002,8.284,4.077,15.818,10.81,21.354
	c6.728,5.527,17.868,10.759,28.247,10.757c8.835,0.001,16.938-2.506,23.302-6.664c6.365-4.161,11.861-9.952,13.815-16.521
	c0.202-0.679,0.83-1.144,1.545-1.144h3.314c0.682-0.001,2.181-1.159,2.639-1.61c0.455-0.453,1.618-1.946,1.618-2.621l0.002-8.996
	C89.554,50.855,88.391,50.247,87.936,49.794z M68.325,48.037c-1.244,0-2.252-0.998-2.252-2.23c0-1.231,1.008-2.23,2.252-2.23
	c1.244,0,2.252,0.998,2.252,2.23C70.577,47.039,69.569,48.037,68.325,48.037z M66.1,75.172c-2.026,1.874-4.596,3.226-7.448,3.938
	c-0.862,0.216-1.736,0.583-1.955-0.271c-0.217-0.854,0.306-0.835,1.167-1.051c2.363-0.589,4.444-1.699,6.038-3.176
	c0.649-0.601,1.668-1.451,2.276-0.808C66.785,74.448,66.749,74.571,66.1,75.172z"/>
</svg>
