<?xml version="1.0" encoding="utf-8"?>
<!-- Generator: Adobe Illustrator 17.0.0, SVG Export Plug-In . SVG Version: 6.00 Build 0)  -->
<!DOCTYPE svg PUBLIC "-//W3C//DTD SVG 1.1//EN" "http://www.w3.org/Graphics/SVG/1.1/DTD/svg11.dtd">
<svg version="1.1" id="Слой_1" xmlns="http://www.w3.org/2000/svg" xmlns:xlink="http://www.w3.org/1999/xlink" x="0px" y="0px"
	 width="91px" height="111px" viewBox="0 0 91 111" enable-background="new 0 0 91 111" xml:space="preserve">
<path fill-rule="evenodd" clip-rule="evenodd" fill="white" d="M74.438,100.437C70.848,104.027,66.077,106,61,106
	c-5.077,0-9.848-1.973-13.438-5.562C43.973,96.848,42,92.077,42,87c0-5.077,1.973-9.848,5.563-13.438C51.152,69.972,55.923,68,61,68
	c5.077,0,9.848,1.972,13.438,5.562C78.027,77.152,80,81.923,80,87C80,92.077,78.027,96.848,74.438,100.437z M61,69.94
	c-9.403,0-17.06,7.657-17.06,17.06c0,9.403,7.657,17.06,17.06,17.06S78.06,96.403,78.06,87C78.06,77.597,70.403,69.94,61,69.94z
	 M59.593,86.03h2.822c2.24,0,4.059,1.819,4.059,4.067c0,2.224-1.795,4.035-4.01,4.067c-0.008,0-0.016,0-0.024,0H61.97v2.021
	c0,0.534-0.437,0.97-0.97,0.97s-0.97-0.437-0.97-0.97v-2.021h-2.684c-0.534,0-0.97-0.437-0.97-0.97s0.437-0.97,0.97-0.97h5.069
	c1.172,0,2.126-0.954,2.126-2.126c0-1.172-0.954-2.126-2.126-2.126h-2.822c-2.24,0-4.067-1.827-4.067-4.067
	c0-2.24,1.827-4.067,4.067-4.067h0.445v-1.981c0-0.533,0.437-0.97,0.97-0.97c0.534,0,0.97,0.437,0.97,0.97v1.981h2.595
	c0.534,0,0.97,0.437,0.97,0.97s-0.437,0.97-0.97,0.97h-4.98c-1.172,0-2.126,0.954-2.126,2.126S58.421,86.03,59.593,86.03z"/>
<path fill="white" d="M65.672,24.625c-3.854-7.929-13.463-11.259-21.461-7.439c-7.998,3.819-11.359,13.342-7.505,21.269
	c1.85,3.807,5.151,6.729,9.175,8.125c1.135,0.393,2.31,0.66,3.503,0.795v20.619c-0.001,3.804-3.113,6.887-6.952,6.885
	c-3.836-0.001-6.946-3.083-6.947-6.885v-3.098c-0.023-4.267-3.531-7.708-7.837-7.686c-4.273,0.024-7.731,3.451-7.754,7.686v17.349
	C14.25,82.93,10.007,87.676,10,93.311v9.808c0,0.741,0.606,1.342,1.353,1.342h3.595v5.196c0,0.741,0.605,1.342,1.354,1.342
	c0.747,0,1.352-0.601,1.352-1.342v-5.197h7.19v5.197c0,0.741,0.605,1.342,1.352,1.342c0.749,0,1.354-0.601,1.354-1.342v-5.197h3.595
	c0.747,0,1.353-0.601,1.353-1.342v-9.807c-0.008-5.637-4.253-10.383-9.899-11.067V64.896c0.019-2.785,2.313-5.029,5.123-5.009
	c2.784,0.018,5.036,2.25,5.055,5.009v3.099c0.001,5.285,4.327,9.569,9.66,9.566c5.33-0.002,9.65-4.284,9.652-9.566V47.456
	c8.869-0.498,15.65-8.028,15.147-16.819C67.118,28.549,66.587,26.507,65.672,24.625L65.672,24.625z M29.791,93.311v8.466H12.707
	v-8.466c0.005-4.576,3.676-8.322,8.291-8.461c0.165,0.031,0.334,0.031,0.498,0C26.113,84.987,29.785,88.733,29.791,93.311
	L29.791,93.311z M63.808,35.914c-2.437,6.907-10.064,10.549-17.033,8.132c-6.97-2.416-10.644-9.974-8.206-16.882
	c2.438-6.908,10.064-10.549,17.034-8.133c3.347,1.16,6.092,3.591,7.63,6.757C64.782,28.952,64.989,32.598,63.808,35.914
	L63.808,35.914z M63.808,35.914"/>
<path fill="white" d="M41.554,13.059c0.747-0.001,1.353-0.602,1.351-1.342c0-0.202-0.045-0.4-0.133-0.581l-2.444-5.03
	c-0.325-0.667-1.133-0.948-1.807-0.627c-0.673,0.321-0.956,1.123-0.632,1.791l2.445,5.029
	C40.559,12.763,41.033,13.059,41.554,13.059L41.554,13.059z M41.554,13.059"/>
<path fill="white" d="M60.237,50.153c-0.673,0.322-0.955,1.123-0.631,1.791l2.445,5.03c0.319,0.67,1.125,0.958,1.801,0.641
	c0.676-0.315,0.966-1.116,0.647-1.785c-0.002-0.008-0.006-0.014-0.009-0.021l-2.445-5.029
	C61.719,50.112,60.911,49.832,60.237,50.153L60.237,50.153z M60.237,50.153"/>
<path fill="white" d="M75.677,18.358l-5.076,2.423c-0.678,0.314-0.97,1.111-0.654,1.783c0.317,0.671,1.122,0.961,1.8,0.648
	c0.009-0.005,0.019-0.009,0.029-0.014l5.075-2.423c0.669-0.329,0.943-1.135,0.611-1.798C77.134,18.324,76.343,18.05,75.677,18.358
	L75.677,18.358z M75.677,18.358"/>
<path fill="white" d="M30.601,39.881l-5.076,2.423c-0.673,0.321-0.956,1.124-0.631,1.791c0.324,0.667,1.134,0.947,1.806,0.626
	l5.076-2.423c0.673-0.321,0.956-1.124,0.631-1.791C32.083,39.839,31.274,39.56,30.601,39.881L30.601,39.881z M30.601,39.881"/>
<path fill="white" d="M61.936,1.083c-0.706-0.245-1.477,0.123-1.724,0.822l-2.983,8.454c-0.253,0.697,0.113,1.465,0.816,1.715
	c0.703,0.25,1.479-0.112,1.731-0.809c0.002-0.008,0.006-0.014,0.008-0.021l2.983-8.453C63.014,2.092,62.642,1.327,61.936,1.083
	L61.936,1.083z M61.936,1.083"/>
<path fill="white" d="M40.888,62.072c0.576,0,1.088-0.36,1.278-0.9l2.983-8.453c0.249-0.698-0.12-1.465-0.826-1.711
	c-0.704-0.247-1.478,0.119-1.726,0.817c-0.001,0.003-0.002,0.006-0.003,0.009l-2.983,8.454c-0.247,0.699,0.124,1.464,0.83,1.71
	C40.585,62.046,40.735,62.072,40.888,62.072L40.888,62.072z M40.888,62.072"/>
<path fill="white" d="M70.835,38.349c-0.247,0.7,0.124,1.465,0.83,1.71l8.529,2.956c0.706,0.247,1.479-0.12,1.728-0.818
	c0.249-0.698-0.12-1.465-0.824-1.712c-0.003-0.001-0.006-0.002-0.009-0.003l-8.529-2.956C71.853,37.282,71.081,37.65,70.835,38.349
	L70.835,38.349z M70.835,38.349"/>
<path fill="white" d="M30.712,23.021l-8.529-2.957c-0.706-0.241-1.477,0.13-1.722,0.829c-0.243,0.697,0.126,1.458,0.829,1.703
	l8.529,2.957c0.706,0.242,1.476-0.13,1.722-0.829C31.783,24.027,31.413,23.266,30.712,23.021L30.712,23.021z M30.712,23.021"/>
</svg>
